<?xml version="1.0" standalone="no"?>
<!DOCTYPE svg PUBLIC "-//W3C//DTD SVG 20010904//EN"
 "http://www.w3.org/TR/2001/REC-SVG-20010904/DTD/svg10.dtd">
<svg version="1.0" xmlns="http://www.w3.org/2000/svg"
 width="1280.000000pt" height="1268.000000pt" viewBox="0 0 1280.000000 1268.000000"
 preserveAspectRatio="xMidYMid meet">
<metadata>
Created by potrace 1.15, written by Peter Selinger 2001-2017
</metadata>
<g transform="translate(0.000000,1268.000000) scale(0.100000,-0.100000)"
fill="#000000" stroke="none">
<path d="M6652 12652 c18 -16 128 -105 243 -198 383 -308 613 -557 854 -921
362 -550 549 -1104 645 -1913 60 -509 72 -1140 30 -1646 l-5 -72 -277 -6
c-152 -4 -644 -13 -1091 -22 -448 -8 -816 -16 -818 -18 -2 -1 746 -1265 1662
-2807 915 -1542 1666 -2808 1668 -2814 3 -5 7 -8 10 -5 3 3 717 1220 1587
2705 870 1485 1595 2721 1611 2748 28 46 29 52 29 172 l0 125 -882 0 -883 0 3
342 c9 806 -85 1486 -287 2098 -236 710 -576 1186 -1111 1552 -559 384 -1363
633 -2250 698 -74 5 -278 10 -453 10 l-318 0 33 -28z"/>
<path d="M3194 10398 c-168 -290 -3179 -5425 -3185 -5433 -5 -5 -9 -67 -9
-137 l0 -128 883 0 882 0 -3 -342 c-9 -806 85 -1486 287 -2098 236 -710 576
-1186 1111 -1552 493 -338 1165 -569 1940 -667 247 -32 464 -42 781 -39 l296
3 -235 190 c-418 337 -644 579 -891 952 -362 550 -548 1102 -645 1913 -60 502
-72 1143 -30 1646 l5 72 277 6 c152 4 644 13 1091 22 448 8 816 16 818 18 2 1
-742 1258 -1653 2792 -911 1534 -1661 2799 -1667 2812 -5 12 -13 22 -16 22 -4
0 -20 -24 -37 -52z"/>
</g>
</svg>
